<svg width="80" height="80" viewBox="0 0 80 80" fill="none" xmlns="http://www.w3.org/2000/svg">
<rect width="80" height="80" rx="4" fill="#E4E6EA"/>
<g opacity="0.6">
<path d="M8.32227 38.1406H10.4902V44H11.9453V38.1406H14.1133V36.9297H8.32227V38.1406ZM15.0215 44H19.7773V42.7891H16.4863V41.0703H19.5234V39.8594H16.4863V38.1406H19.7676V36.9297H15.0215V44ZM22.0918 44L22.624 42.3691H25.1826L25.7148 44H27.2871L24.8457 36.9297H22.9609L20.5098 44H22.0918ZM22.9951 41.2266L23.8789 38.5215H23.9277L24.8115 41.2266H22.9951ZM28.0879 36.9297V44H29.5137V39.3516H29.5723L31.418 43.9707H32.3945L34.2402 39.3711H34.2988V44H35.7246V36.9297H33.9082L31.9453 41.7246H31.8672L29.9043 36.9297H28.0879ZM41.291 36.9297V41.4023C41.2959 42.2178 40.7197 42.8037 39.8359 42.8086C38.9619 42.8037 38.3857 42.2178 38.3809 41.4023V36.9297H36.916V41.5195C36.916 43.0674 38.0781 44.1025 39.8359 44.0977C41.5889 44.1025 42.7656 43.0674 42.7656 41.5195V36.9297H41.291ZM43.957 44H45.4219V41.6953H46.6914C48.3223 41.6953 49.2598 40.7236 49.2598 39.3125C49.2598 37.9209 48.3369 36.9297 46.7305 36.9297H43.957V44ZM45.4219 40.5137V38.1309H46.457C47.3262 38.1357 47.751 38.6094 47.7461 39.3125C47.751 40.0254 47.3262 40.5137 46.457 40.5137H45.4219ZM50.6758 44.0879C51.1104 44.0879 51.4863 43.7217 51.4863 43.2676C51.4863 42.8184 51.1104 42.4521 50.6758 42.457C50.2168 42.4521 49.8457 42.8184 49.8555 43.2676C49.8457 43.7217 50.2168 44.0879 50.6758 44.0879ZM52.6777 44H57.1895V42.7891H54.1426V36.9297H52.6777V44ZM64.3281 40.4648C64.3281 38.1553 62.8975 36.832 61.0273 36.832C59.1426 36.832 57.7168 38.1553 57.7168 40.4648C57.7168 42.7646 59.1426 44.0977 61.0273 44.0977C62.8975 44.0977 64.3281 42.7744 64.3281 40.4648ZM59.2109 40.4648C59.2109 38.9512 59.9287 38.1357 61.0273 38.1309C62.1162 38.1357 62.8389 38.9512 62.834 40.4648C62.8389 41.9736 62.1162 42.7939 61.0273 42.7988C59.9287 42.7939 59.2109 41.9736 59.2109 40.4648ZM65.3828 44H69.8945V42.7891H66.8477V36.9297H65.3828V44Z" fill="#4B5563"/>
<path d="M8.32227 38.1406H7.32227V39.1406H8.32227V38.1406ZM10.4902 38.1406H11.4902V37.1406H10.4902V38.1406ZM10.4902 44H9.49023V45H10.4902V44ZM11.9453 44V45H12.9453V44H11.9453ZM11.9453 38.1406V37.1406H10.9453V38.1406H11.9453ZM14.1133 38.1406V39.1406H15.1133V38.1406H14.1133ZM14.1133 36.9297H15.1133V35.9297H14.1133V36.9297ZM8.32227 36.9297V35.9297H7.32227V36.9297H8.32227ZM8.32227 39.1406H10.4902V37.1406H8.32227V39.1406ZM9.49023 38.1406V44H11.4902V38.1406H9.49023ZM10.4902 45H11.9453V43H10.4902V45ZM12.9453 44V38.1406H10.9453V44H12.9453ZM11.9453 39.1406H14.1133V37.1406H11.9453V39.1406ZM15.1133 38.1406V36.9297H13.1133V38.1406H15.1133ZM14.1133 35.9297H8.32227V37.9297H14.1133V35.9297ZM7.32227 36.9297V38.1406H9.32227V36.9297H7.32227ZM15.0215 44H14.0215V45H15.0215V44ZM19.7773 44V45H20.7773V44H19.7773ZM19.7773 42.7891H20.7773V41.7891H19.7773V42.7891ZM16.4863 42.7891H15.4863V43.7891H16.4863V42.7891ZM16.4863 41.0703V40.0703H15.4863V41.0703H16.4863ZM19.5234 41.0703V42.0703H20.5234V41.0703H19.5234ZM19.5234 39.8594H20.5234V38.8594H19.5234V39.8594ZM16.4863 39.8594H15.4863V40.8594H16.4863V39.8594ZM16.4863 38.1406V37.1406H15.4863V38.1406H16.4863ZM19.7676 38.1406V39.1406H20.7676V38.1406H19.7676ZM19.7676 36.9297H20.7676V35.9297H19.7676V36.9297ZM15.0215 36.9297V35.9297H14.0215V36.9297H15.0215ZM15.0215 45H19.7773V43H15.0215V45ZM20.7773 44V42.7891H18.7773V44H20.7773ZM19.7773 41.7891H16.4863V43.7891H19.7773V41.7891ZM17.4863 42.7891V41.0703H15.4863V42.7891H17.4863ZM16.4863 42.0703H19.5234V40.0703H16.4863V42.0703ZM20.5234 41.0703V39.8594H18.5234V41.0703H20.5234ZM19.5234 38.8594H16.4863V40.8594H19.5234V38.8594ZM17.4863 39.8594V38.1406H15.4863V39.8594H17.4863ZM16.4863 39.1406H19.7676V37.1406H16.4863V39.1406ZM20.7676 38.1406V36.9297H18.7676V38.1406H20.7676ZM19.7676 35.9297H15.0215V37.9297H19.7676V35.9297ZM14.0215 36.9297V44H16.0215V36.9297H14.0215ZM22.0918 44V45H22.8174L23.0425 44.3102L22.0918 44ZM22.624 42.3691V41.3691H21.8985L21.6734 42.0589L22.624 42.3691ZM25.1826 42.3691L26.1333 42.0589L25.9082 41.3691H25.1826V42.3691ZM25.7148 44L24.7642 44.3102L24.9893 45H25.7148V44ZM27.2871 44V45H28.6904L28.2323 43.6736L27.2871 44ZM24.8457 36.9297L25.7909 36.6033L25.5583 35.9297H24.8457V36.9297ZM22.9609 36.9297V35.9297H22.2492L22.0161 36.6021L22.9609 36.9297ZM20.5098 44L19.5649 43.6724L19.1047 45H20.5098V44ZM22.9951 41.2266L22.0446 40.916L21.6164 42.2266H22.9951V41.2266ZM23.8789 38.5215V37.5215H23.1536L22.9284 38.2109L23.8789 38.5215ZM23.9277 38.5215L24.8783 38.2109L24.653 37.5215H23.9277V38.5215ZM24.8115 41.2266V42.2266H26.1903L25.7621 40.916L24.8115 41.2266ZM23.0425 44.3102L23.5747 42.6794L21.6734 42.0589L21.1411 43.6898L23.0425 44.3102ZM22.624 43.3691H25.1826V41.3691H22.624V43.3691ZM24.232 42.6794L24.7642 44.3102L26.6655 43.6898L26.1333 42.0589L24.232 42.6794ZM25.7148 45H27.2871V43H25.7148V45ZM28.2323 43.6736L25.7909 36.6033L23.9005 37.2561L26.3419 44.3264L28.2323 43.6736ZM24.8457 35.9297H22.9609V37.9297H24.8457V35.9297ZM22.0161 36.6021L19.5649 43.6724L21.4546 44.3276L23.9058 37.2572L22.0161 36.6021ZM20.5098 45H22.0918V43H20.5098V45ZM23.9457 41.5371L24.8295 38.832L22.9284 38.2109L22.0446 40.916L23.9457 41.5371ZM23.8789 39.5215H23.9277V37.5215H23.8789V39.5215ZM22.9772 38.832L23.861 41.5371L25.7621 40.916L24.8783 38.2109L22.9772 38.832ZM24.8115 40.2266H22.9951V42.2266H24.8115V40.2266ZM28.0879 36.9297V35.9297H27.0879V36.9297H28.0879ZM28.0879 44H27.0879V45H28.0879V44ZM29.5137 44V45H30.5137V44H29.5137ZM29.5137 39.3516V38.3516H28.5137V39.3516H29.5137ZM29.5723 39.3516L30.5009 38.9805L30.2496 38.3516H29.5723V39.3516ZM31.418 43.9707L30.4894 44.3418L30.7407 44.9707H31.418V43.9707ZM32.3945 43.9707V44.9707H33.0708L33.3226 44.3431L32.3945 43.9707ZM34.2402 39.3711V38.3711H33.564L33.3122 38.9987L34.2402 39.3711ZM34.2988 39.3711H35.2988V38.3711H34.2988V39.3711ZM34.2988 44H33.2988V45H34.2988V44ZM35.7246 44V45H36.7246V44H35.7246ZM35.7246 36.9297H36.7246V35.9297H35.7246V36.9297ZM33.9082 36.9297V35.9297H33.237L32.9827 36.5508L33.9082 36.9297ZM31.9453 41.7246V42.7246H32.6165L32.8708 42.1035L31.9453 41.7246ZM31.8672 41.7246L30.9417 42.1035L31.196 42.7246H31.8672V41.7246ZM29.9043 36.9297L30.8298 36.5508L30.5755 35.9297H29.9043V36.9297ZM27.0879 36.9297V44H29.0879V36.9297H27.0879ZM28.0879 45H29.5137V43H28.0879V45ZM30.5137 44V39.3516H28.5137V44H30.5137ZM29.5137 40.3516H29.5723V38.3516H29.5137V40.3516ZM28.6437 39.7226L30.4894 44.3418L32.3466 43.5997L30.5009 38.9805L28.6437 39.7226ZM31.418 44.9707H32.3945V42.9707H31.418V44.9707ZM33.3226 44.3431L35.1683 39.7435L33.3122 38.9987L31.4665 43.5983L33.3226 44.3431ZM34.2402 40.3711H34.2988V38.3711H34.2402V40.3711ZM33.2988 39.3711V44H35.2988V39.3711H33.2988ZM34.2988 45H35.7246V43H34.2988V45ZM36.7246 44V36.9297H34.7246V44H36.7246ZM35.7246 35.9297H33.9082V37.9297H35.7246V35.9297ZM32.9827 36.5508L31.0199 41.3458L32.8708 42.1035L34.8337 37.3085L32.9827 36.5508ZM31.9453 40.7246H31.8672V42.7246H31.9453V40.7246ZM32.7926 41.3458L30.8298 36.5508L28.9788 37.3085L30.9417 42.1035L32.7926 41.3458ZM29.9043 35.9297H28.0879V37.9297H29.9043V35.9297ZM41.291 36.9297V35.9297H40.291V36.9297H41.291ZM41.291 41.4023H40.291L40.291 41.4083L41.291 41.4023ZM39.8359 42.8086L39.8304 43.8086L39.8415 43.8086L39.8359 42.8086ZM38.3809 41.4023H37.3808L37.3809 41.4083L38.3809 41.4023ZM38.3809 36.9297H39.3809V35.9297H38.3809V36.9297ZM36.916 36.9297V35.9297H35.916V36.9297H36.916ZM39.8359 44.0977L39.8387 43.0976L39.8332 43.0977L39.8359 44.0977ZM42.7656 36.9297H43.7656V35.9297H42.7656V36.9297ZM40.291 36.9297V41.4023H42.291V36.9297H40.291ZM40.291 41.4083C40.292 41.5717 40.2392 41.6536 40.1965 41.6955C40.1525 41.7387 40.0485 41.8074 39.8304 41.8086L39.8415 43.8086C40.5072 43.8049 41.1332 43.5782 41.5969 43.1234C42.0621 42.6672 42.2949 42.0484 42.291 41.3964L40.291 41.4083ZM39.8415 41.8086C39.6318 41.8074 39.529 41.7409 39.4827 41.6955C39.4368 41.6505 39.3818 41.5635 39.3808 41.3964L37.3809 41.4083C37.3848 42.0566 37.6204 42.6703 38.0823 43.1234C38.5438 43.576 39.166 43.8049 39.8304 43.8086L39.8415 41.8086ZM39.3809 41.4023V36.9297H37.3809V41.4023H39.3809ZM38.3809 35.9297H36.916V37.9297H38.3809V35.9297ZM35.916 36.9297V41.5195H37.916V36.9297H35.916ZM35.916 41.5195C35.916 42.559 36.3142 43.4848 37.054 44.1397C37.783 44.785 38.7661 45.1006 39.8387 45.0977L39.8332 43.0977C39.1479 43.0996 38.6711 42.9001 38.3796 42.6421C38.0989 42.3936 37.916 42.0279 37.916 41.5195H35.916ZM39.8332 45.0977C40.9037 45.1006 41.8877 44.7848 42.6187 44.1416C43.3608 43.4886 43.7656 42.563 43.7656 41.5195H41.7656C41.7656 42.0239 41.582 42.3898 41.2975 42.6401C41.0019 42.9002 40.5211 43.0996 39.8387 43.0977L39.8332 45.0977ZM43.7656 41.5195V36.9297H41.7656V41.5195H43.7656ZM42.7656 35.9297H41.291V37.9297H42.7656V35.9297ZM43.957 44H42.957V45H43.957V44ZM45.4219 44V45H46.4219V44H45.4219ZM45.4219 41.6953V40.6953H44.4219V41.6953H45.4219ZM43.957 36.9297V35.9297H42.957V36.9297H43.957ZM45.4219 40.5137H44.4219V41.5137H45.4219V40.5137ZM45.4219 38.1309V37.1309H44.4219V38.1309H45.4219ZM46.457 38.1309L46.4627 37.1309H46.457V38.1309ZM47.7461 39.3125L46.746 39.3056L46.7461 39.3193L47.7461 39.3125ZM43.957 45H45.4219V43H43.957V45ZM46.4219 44V41.6953H44.4219V44H46.4219ZM45.4219 42.6953H46.6914V40.6953H45.4219V42.6953ZM46.6914 42.6953C47.7056 42.6953 48.6156 42.3899 49.2785 41.7556C49.9447 41.1182 50.2598 40.2451 50.2598 39.3125H48.2598C48.2598 39.791 48.1061 40.1094 47.8958 40.3105C47.6823 40.5149 47.3081 40.6953 46.6914 40.6953V42.6953ZM50.2598 39.3125C50.2598 38.3915 49.9499 37.5227 49.2965 36.8841C48.6435 36.2458 47.7421 35.9297 46.7305 35.9297V37.9297C47.3253 37.9297 47.6886 38.1091 47.8986 38.3144C48.1082 38.5193 48.2598 38.8419 48.2598 39.3125H50.2598ZM46.7305 35.9297H43.957V37.9297H46.7305V35.9297ZM42.957 36.9297V44H44.957V36.9297H42.957ZM46.4219 40.5137V38.1309H44.4219V40.5137H46.4219ZM45.4219 39.1309H46.457V37.1309H45.4219V39.1309ZM46.4514 39.1308C46.7107 39.1323 46.757 39.2008 46.7346 39.1791C46.7268 39.1716 46.7265 39.1665 46.7304 39.1771C46.7354 39.1906 46.7466 39.2302 46.7461 39.3056L48.7461 39.3194C48.7499 38.7637 48.5801 38.181 48.124 37.7405C47.6732 37.3051 47.0725 37.1343 46.4627 37.1309L46.4514 39.1308ZM46.7461 39.3193C46.7472 39.4765 46.704 39.4912 46.7273 39.4683C46.7494 39.4465 46.7072 39.5137 46.457 39.5137V41.5137C47.076 41.5137 47.6808 41.3367 48.1313 40.8926C48.5831 40.4473 48.7499 39.8613 48.7461 39.3057L46.7461 39.3193ZM46.457 39.5137H45.4219V41.5137H46.457V39.5137ZM50.6758 42.457L50.6651 43.457L50.6761 43.4571L50.687 43.457L50.6758 42.457ZM49.8555 43.2676L50.8552 43.2891L50.8557 43.2675L50.8552 43.2458L49.8555 43.2676ZM50.6758 45.0879C51.6626 45.0879 52.4863 44.274 52.4863 43.2676H50.4863C50.4863 43.2126 50.5099 43.1679 50.5369 43.1409C50.5623 43.1155 50.6089 43.0879 50.6758 43.0879V45.0879ZM52.4863 43.2676C52.4863 42.2645 51.6586 41.4459 50.6645 41.4571L50.687 43.457C50.6163 43.4578 50.5666 43.4286 50.5398 43.402C50.5119 43.3744 50.4863 43.3275 50.4863 43.2676H52.4863ZM50.6864 41.4571C49.6851 41.4464 48.8332 42.2529 48.8557 43.2893L50.8552 43.2458C50.8582 43.3838 50.7485 43.4579 50.6651 43.457L50.6864 41.4571ZM48.8557 43.2461C48.8334 44.285 49.6807 45.0879 50.6758 45.0879V43.0879C50.7529 43.0879 50.858 43.1584 50.8552 43.2891L48.8557 43.2461ZM52.6777 44H51.6777V45H52.6777V44ZM57.1895 44V45H58.1895V44H57.1895ZM57.1895 42.7891H58.1895V41.7891H57.1895V42.7891ZM54.1426 42.7891H53.1426V43.7891H54.1426V42.7891ZM54.1426 36.9297H55.1426V35.9297H54.1426V36.9297ZM52.6777 36.9297V35.9297H51.6777V36.9297H52.6777ZM52.6777 45H57.1895V43H52.6777V45ZM58.1895 44V42.7891H56.1895V44H58.1895ZM57.1895 41.7891H54.1426V43.7891H57.1895V41.7891ZM55.1426 42.7891V36.9297H53.1426V42.7891H55.1426ZM54.1426 35.9297H52.6777V37.9297H54.1426V35.9297ZM51.6777 36.9297V44H53.6777V36.9297H51.6777ZM61.0273 38.1309L61.0318 37.1308L61.0229 37.1309L61.0273 38.1309ZM62.834 40.4648L61.834 40.4616L61.834 40.4681L62.834 40.4648ZM61.0273 42.7988L61.0229 43.7989L61.0318 43.7988L61.0273 42.7988ZM65.3281 40.4648C65.3281 39.1008 64.9019 37.9293 64.1023 37.0918C63.3017 36.2532 62.2045 35.832 61.0273 35.832V37.832C61.7203 37.832 62.2735 38.0725 62.6557 38.4729C63.039 38.8744 63.3281 39.5193 63.3281 40.4648H65.3281ZM61.0273 35.832C59.8448 35.832 58.7446 36.2519 57.9423 37.0914C57.1413 37.9297 56.7168 39.1017 56.7168 40.4648H58.7168C58.7168 39.5184 59.0052 38.874 59.3882 38.4732C59.77 38.0737 60.3252 37.832 61.0273 37.832V35.832ZM56.7168 40.4648C56.7168 41.824 57.1418 42.9952 57.9417 43.8339C58.7429 44.6739 59.8427 45.0977 61.0273 45.0977V43.0977C60.3273 43.0977 59.7718 42.8549 59.3889 42.4535C59.0047 42.0506 58.7168 41.4055 58.7168 40.4648H56.7168ZM61.0273 45.0977C62.2045 45.0977 63.3017 44.6765 64.1023 43.8379C64.9019 43.0003 65.3281 41.8289 65.3281 40.4648H63.3281C63.3281 41.4103 63.039 42.0553 62.6557 42.4568C62.2735 42.8572 61.7203 43.0977 61.0273 43.0977V45.0977ZM60.2109 40.4648C60.2109 39.8526 60.3572 39.5193 60.4863 39.359C60.594 39.225 60.75 39.1321 61.0318 39.1308L61.0229 37.1309C60.2061 37.1345 59.4538 37.4517 58.9281 38.1052C58.4235 38.7321 58.2109 39.5635 58.2109 40.4648H60.2109ZM61.0229 39.1308C61.2976 39.1321 61.4529 39.2234 61.5611 39.3582C61.6899 39.5186 61.836 39.8515 61.834 40.4616L63.834 40.4681C63.8369 39.5645 63.6241 38.7329 63.1205 38.1059C62.5964 37.4533 61.8459 37.1345 61.0318 37.1309L61.0229 39.1308ZM61.834 40.4681C61.836 41.075 61.6902 41.4086 61.5607 41.5702C61.4515 41.7064 61.2957 41.7976 61.0229 41.7988L61.0318 43.7988C61.8478 43.7952 62.5979 43.4738 63.121 42.8214C63.6237 42.1944 63.8369 41.3635 63.834 40.4616L61.834 40.4681ZM61.0318 41.7988C60.7519 41.7976 60.5954 41.7048 60.4867 41.5695C60.3569 41.4079 60.2109 41.074 60.2109 40.4648H58.2109C58.2109 41.3645 58.4239 42.1951 58.9276 42.8221C59.4524 43.4754 60.2042 43.7952 61.0229 43.7988L61.0318 41.7988ZM65.3828 44H64.3828V45H65.3828V44ZM69.8945 44V45H70.8945V44H69.8945ZM69.8945 42.7891H70.8945V41.7891H69.8945V42.7891ZM66.8477 42.7891H65.8477V43.7891H66.8477V42.7891ZM66.8477 36.9297H67.8477V35.9297H66.8477V36.9297ZM65.3828 36.9297V35.9297H64.3828V36.9297H65.3828ZM65.3828 45H69.8945V43H65.3828V45ZM70.8945 44V42.7891H68.8945V44H70.8945ZM69.8945 41.7891H66.8477V43.7891H69.8945V41.7891ZM67.8477 42.7891V36.9297H65.8477V42.7891H67.8477ZM66.8477 35.9297H65.3828V37.9297H66.8477V35.9297ZM64.3828 36.9297V44H66.3828V36.9297H64.3828Z" fill="white"/>
</g>
</svg>
